# xmcd
#
# Track frame offsets:
#      150
#      12968
#      25760
#      39685
#      53168
#      64660
#      75888
#      89775
#      111618
#      125220
#      138220
#      151773
#      167888
#      183680
# 
# Disc length: 2600 seconds
#
# Revision: 2
# Processed by: cddbd v1.4PL0 Copyright (c) Steve Scherf et al.
#
# Submitted via: FreeRIP 1.20
#
DISCID=bd0a260e
DTITLE=Tanya Tucker - Tanya Tucker Collection
DYEAR=1900
DGENRE=country
TTITLE0=San Antonoio Stroll
TTITLE1=Don't Believe My Heart Can Stand Another You
TTITLE2=You've Got Me To Hold On To
TTITLE3=Here's Some Love
TTITLE4=It's A Cowboys Lovin' Night
TTITLE5=Pecos Promenade
TTITLE6=Lizzie And The Rainman
TTITLE7=Texas (When I Die)
TTITLE8=Should I Do It
TTITLE9=Can I See You Tonight
TTITLE10=Dream Lover
TTITLE11=Dancing The Night Away
TTITLE12=Delta Dawn
TTITLE13=The Jamestown Ferry
EXTD=
EXTT0=
EXTT1=
EXTT2=
EXTT3=
EXTT4=
EXTT5=
EXTT6=
EXTT7=
EXTT8=
EXTT9=
EXTT10=
EXTT11=
EXTT12=
EXTT13=
PLAYORDER=
